<mxfile host="app.diagrams.net" modified="2023-09-24T10:44:36.571Z" agent="Mozilla/5.0 (Windows NT 10.0; Win64; x64) AppleWebKit/537.36 (KHTML, like Gecko) Chrome/117.0.0.0 Safari/537.36" version="21.8.1" etag="FpX-K3KwuWa6_6MCSF9X" type="github">
  <diagram name="Page-1" id="zc9MnMclcaW4eOv8b6fw">
    <mxGraphModel>
      <root>
        <mxCell id="0" />
        <mxCell id="1" parent="0" />
      </root>
    </mxGraphModel>
  </diagram>
</mxfile>
